<svg height="24" viewBox="0 0 24 24" width="24" xmlns="http://www.w3.org/2000/svg"><g fill="#212121"><path d="m7 9a2 2 0 1 0 0-4 2 2 0 0 0 0 4z"/><path d="m20 13v-8.17c0-1.56-1.27-2.83-2.83-2.83-.75 0-1.47.3-2 .83l-1.25 1.25c-.16-.05-.33-.08-.51-.08-.4 0-.77.12-1.08.32l2.76 2.76c.2-.31.32-.68.32-1.08 0-.18-.03-.34-.07-.51l1.25-1.25a.828.828 0 0 1 1.41.59v8.17h-6.85c-.3-.21-.57-.45-.82-.72l-1.4-1.55c-.19-.21-.43-.38-.69-.5a2.251 2.251 0 0 0 -3.24 2.02v.75h-3v6c0 1.1.9 2 2 2 0 .55.45 1 1 1h14c.55 0 1-.45 1-1 1.1 0 2-.9 2-2v-6zm0 6h-16v-4h16z"/></g></svg>