<svg xmlns="http://www.w3.org/2000/svg" height="24" width="24" viewBox="0 0 24 24"><title>incognito</title><g fill="#85289f" class="nc-icon-wrapper"><polygon points="0 13 24 13 19 9 5 9 0 13" fill="#85289f"></polygon><path d="M17.5,14a4.484,4.484,0,0,0-3.911,2.318,4.506,4.506,0,0,0-3.178,0A4.465,4.465,0,1,0,11,18.5c0-.089-.021-.172-.026-.26a2.467,2.467,0,0,1,2.052,0c0,.088-.026.171-.026.26A4.5,4.5,0,1,0,17.5,14Zm-11,7A2.5,2.5,0,1,1,9,18.5,2.5,2.5,0,0,1,6.5,21Zm11,0A2.5,2.5,0,1,1,20,18.5,2.5,2.5,0,0,1,17.5,21Z" data-color="color-2"></path><path d="M18.5,7,17.189,1.757A1,1,0,0,0,16.219,1H7.781a1,1,0,0,0-.97.757L5.5,7Z" fill="#85289f"></path></g></svg>