<svg xmlns="http://www.w3.org/2000/svg" height="24" width="24" viewBox="0 0 24 24"><title>home 3</title><g fill="#85289f" class="nc-icon-wrapper"><path d="M23.633,10.226l-11-9a1,1,0,0,0-1.266,0L5,6.435V4.5A.5.5,0,0,0,4.5,4h-1a.5.5,0,0,0-.5.5V8.071L.367,10.226a1,1,0,0,0,1.266,1.548L3,10.656V22a1,1,0,0,0,1,1h6V18.5a.5.5,0,0,1,.5-.5h3a.5.5,0,0,1,.5.5V23h6a1,1,0,0,0,1-1V10.656l1.367,1.118a1,1,0,0,0,1.29-1.529ZM13.5,14h-3a.5.5,0,0,1-.5-.5v-3a.5.5,0,0,1,.5-.5h3a.5.5,0,0,1,.5.5v3A.5.5,0,0,1,13.5,14Z" fill="#85289f"></path></g></svg>