<svg height="24" viewBox="0 0 24 24" width="24" xmlns="http://www.w3.org/2000/svg"><g fill="#212121" stroke="#212121" stroke-width="2"><g fill="none" stroke="#212121" stroke-miterlimit="10"><path d="m7.437 22h9.126a10.993 10.993 0 0 0 6.437-10h-22a10.993 10.993 0 0 0 6.437 10z" stroke-linecap="square"/><path d="m19 7 4-6"/><path d="m15.215 7 1.785-5"/><path d="m20.829 9a2.99 2.99 0 0 0 -5.023-1.033 2.962 2.962 0 0 0 -4.276-1.567 2.984 2.984 0 0 0 -5.352.618c-.06-.004-.117-.018-.178-.018a3 3 0 0 0 -2.829 2" stroke-linecap="square"/></g><circle cx="4" cy="3" fill="#212121" r="1" stroke="none"/><circle cx="12" cy="2" fill="#212121" r="1" stroke="none"/></g></svg>