<svg xmlns="http://www.w3.org/2000/svg" height="24" width="24" viewBox="0 0 24 24"><title>contactless card</title><g fill="#fc894f" class="nc-icon-wrapper"><path d="M22,2H2A2,2,0,0,0,0,4V20a2,2,0,0,0,2,2H22a2,2,0,0,0,2-2V4A2,2,0,0,0,22,2ZM13,17.5a.5.5,0,0,1-.5.5h-8a.5.5,0,0,1-.5-.5v-1a.5.5,0,0,1,.5-.5h8a.5.5,0,0,1,.5.5ZM12.5,9A1.5,1.5,0,1,1,14,10.5,1.5,1.5,0,0,1,12.5,9ZM20,17.5a.5.5,0,0,1-.5.5h-4a.5.5,0,0,1-.5-.5v-1a.5.5,0,0,1,.5-.5h4a.5.5,0,0,1,.5.5Zm-1.2-4.9a1,1,0,1,1-1.6-1.2,4,4,0,0,0,0-4.8,1,1,0,1,1,1.6-1.2,6,6,0,0,1,0,7.2Z" fill="#fc894f"></path></g></svg>